<mxfile host="app.diagrams.net" modified="2021-09-03T02:15:04.427Z" agent="5.0 (Windows NT 10.0; Win64; x64) AppleWebKit/537.36 (KHTML, like Gecko) Chrome/92.0.4515.159 Safari/537.36" etag="XdPw43F02ivONKnay0ba" version="15.0.3" type="github">
  <diagram id="dQK4u083P2xhZ_M9WJ_P" name="Page-1">
    <mxGraphModel dx="1209" dy="626" grid="1" gridSize="10" guides="1" tooltips="1" connect="1" arrows="1" fold="1" page="1" pageScale="1" pageWidth="850" pageHeight="1100" math="0" shadow="0">
      <root>
        <mxCell id="0" />
        <mxCell id="1" parent="0" />
        <mxCell id="PEhX64SJgtVYZkZGslHK-1" value="DEV" style="rounded=1;whiteSpace=wrap;html=1;" vertex="1" parent="1">
          <mxGeometry x="60" y="290" width="120" height="60" as="geometry" />
        </mxCell>
        <mxCell id="PEhX64SJgtVYZkZGslHK-2" value="DEV" style="rounded=1;whiteSpace=wrap;html=1;" vertex="1" parent="1">
          <mxGeometry x="60" y="290" width="120" height="60" as="geometry" />
        </mxCell>
        <mxCell id="PEhX64SJgtVYZkZGslHK-3" value="TESTING&lt;span style=&quot;color: rgba(0 , 0 , 0 , 0) ; font-family: monospace ; font-size: 0px&quot;&gt;%3CmxGraphModel%3E%3Croot%3E%3CmxCell%20id%3D%220%22%2F%3E%3CmxCell%20id%3D%221%22%20parent%3D%220%22%2F%3E%3CmxCell%20id%3D%222%22%20value%3D%22DEV%22%20style%3D%22rounded%3D1%3BwhiteSpace%3Dwrap%3Bhtml%3D1%3B%22%20vertex%3D%221%22%20parent%3D%221%22%3E%3CmxGeometry%20x%3D%2260%22%20y%3D%22290%22%20width%3D%22120%22%20height%3D%2260%22%20as%3D%22geometry%22%2F%3E%3C%2FmxCell%3E%3C%2Froot%3E%3C%2FmxGraphModel%3E&lt;/span&gt;" style="rounded=1;whiteSpace=wrap;html=1;" vertex="1" parent="1">
          <mxGeometry x="350" y="290" width="120" height="60" as="geometry" />
        </mxCell>
        <mxCell id="PEhX64SJgtVYZkZGslHK-4" value="DEPLOY" style="rounded=1;whiteSpace=wrap;html=1;" vertex="1" parent="1">
          <mxGeometry x="640" y="290" width="120" height="60" as="geometry" />
        </mxCell>
        <mxCell id="PEhX64SJgtVYZkZGslHK-5" value="DEV" style="rounded=1;whiteSpace=wrap;html=1;" vertex="1" parent="1">
          <mxGeometry x="50" y="430" width="120" height="60" as="geometry" />
        </mxCell>
        <mxCell id="PEhX64SJgtVYZkZGslHK-6" value="TESTING&lt;span style=&quot;color: rgba(0 , 0 , 0 , 0) ; font-family: monospace ; font-size: 0px&quot;&gt;%3CmxGraphModel%3E%3Croot%3E%3CmxCell%20id%3D%220%22%2F%3E%3CmxCell%20id%3D%221%22%20parent%3D%220%22%2F%3E%3CmxCell%20id%3D%222%22%20value%3D%22DEV%22%20style%3D%22rounded%3D1%3BwhiteSpace%3Dwrap%3Bhtml%3D1%3B%22%20vertex%3D%221%22%20parent%3D%221%22%3E%3CmxGeometry%20x%3D%2260%22%20y%3D%22290%22%20width%3D%22120%22%20height%3D%2260%22%20as%3D%22geometry%22%2F%3E%3C%2FmxCell%3E%3C%2Froot%3E%3C%2FmxGraphModel%3E&lt;/span&gt;" style="rounded=1;whiteSpace=wrap;html=1;" vertex="1" parent="1">
          <mxGeometry x="250" y="430" width="120" height="60" as="geometry" />
        </mxCell>
        <mxCell id="PEhX64SJgtVYZkZGslHK-7" value="stagging&amp;nbsp;" style="rounded=1;whiteSpace=wrap;html=1;" vertex="1" parent="1">
          <mxGeometry x="440" y="430" width="120" height="60" as="geometry" />
        </mxCell>
        <mxCell id="PEhX64SJgtVYZkZGslHK-9" value="DEV" style="rounded=1;whiteSpace=wrap;html=1;" vertex="1" parent="1">
          <mxGeometry x="50" y="550" width="120" height="60" as="geometry" />
        </mxCell>
        <mxCell id="PEhX64SJgtVYZkZGslHK-10" value="TESTING&lt;span style=&quot;color: rgba(0 , 0 , 0 , 0) ; font-family: monospace ; font-size: 0px&quot;&gt;%3CmxGraphModel%3E%3Croot%3E%3CmxCell%20id%3D%220%22%2F%3E%3CmxCell%20id%3D%221%22%20parent%3D%220%22%2F%3E%3CmxCell%20id%3D%222%22%20value%3D%22DEV%22%20style%3D%22rounded%3D1%3BwhiteSpace%3Dwrap%3Bhtml%3D1%3B%22%20vertex%3D%221%22%20parent%3D%221%22%3E%3CmxGeometry%20x%3D%2260%22%20y%3D%22290%22%20width%3D%22120%22%20height%3D%2260%22%20as%3D%22geometry%22%2F%3E%3C%2FmxCell%3E%3C%2Froot%3E%3C%2FmxGraphModel%3E&lt;/span&gt;" style="rounded=1;whiteSpace=wrap;html=1;" vertex="1" parent="1">
          <mxGeometry x="250" y="550" width="120" height="60" as="geometry" />
        </mxCell>
        <mxCell id="PEhX64SJgtVYZkZGslHK-11" value="stagging&amp;nbsp;" style="rounded=1;whiteSpace=wrap;html=1;" vertex="1" parent="1">
          <mxGeometry x="430" y="560" width="120" height="60" as="geometry" />
        </mxCell>
        <mxCell id="PEhX64SJgtVYZkZGslHK-12" value="DEPLOY" style="rounded=1;whiteSpace=wrap;html=1;" vertex="1" parent="1">
          <mxGeometry x="670" y="550" width="120" height="60" as="geometry" />
        </mxCell>
        <mxCell id="PEhX64SJgtVYZkZGslHK-13" value="" style="endArrow=none;html=1;" edge="1" parent="1">
          <mxGeometry width="50" height="50" relative="1" as="geometry">
            <mxPoint x="70" y="240" as="sourcePoint" />
            <mxPoint x="400" y="240" as="targetPoint" />
          </mxGeometry>
        </mxCell>
        <mxCell id="PEhX64SJgtVYZkZGslHK-14" value="" style="endArrow=none;html=1;" edge="1" parent="1">
          <mxGeometry width="50" height="50" relative="1" as="geometry">
            <mxPoint x="100" y="410" as="sourcePoint" />
            <mxPoint x="530" y="410" as="targetPoint" />
          </mxGeometry>
        </mxCell>
        <mxCell id="PEhX64SJgtVYZkZGslHK-15" value="" style="endArrow=none;html=1;" edge="1" parent="1">
          <mxGeometry width="50" height="50" relative="1" as="geometry">
            <mxPoint x="100" y="530" as="sourcePoint" />
            <mxPoint x="700" y="530" as="targetPoint" />
          </mxGeometry>
        </mxCell>
      </root>
    </mxGraphModel>
  </diagram>
</mxfile>
